<svg xmlns="http://www.w3.org/2000/svg" xmlns:xlink="http://www.w3.org/1999/xlink" viewBox="0 0 130 130" width="130" height="130" preserveAspectRatio="xMidYMid meet" style="width: 100%; height: 100%; transform: translate3d(0px, 0px, 0px); content-visibility: visible;"><defs><clipPath id="__lottie_element_279"><rect width="130" height="130" x="0" y="0"></rect></clipPath></defs><g clip-path="url(#__lottie_element_279)"><g transform="matrix(0.12499989569187164,0.00016611201863270253,-0.00016611201863270253,0.12499989569187164,30.006317138671875,13.58036994934082)" opacity="1" style="display: block;"><g opacity="1" transform="matrix(1,0,0,1,280.41900634765625,373.1809997558594)"><path fill="rgb(54,124,240)" fill-opacity="1" d=" M94.43000030517578,248.95700073242188 C94.43000030517578,248.95700073242188 -94.42900085449219,248.95700073242188 -94.42900085449219,248.95700073242188 C-122.6240005493164,220.76199340820312 -146.88299560546875,196.5030059814453 -175.0780029296875,168.30799865722656 C-175.0780029296875,168.30799865722656 -175.0780029296875,-168.30799865722656 -175.0780029296875,-168.30799865722656 C-175.0780029296875,-168.30799865722656 -94.42900085449219,-248.95700073242188 -94.42900085449219,-248.95700073242188 C-94.42900085449219,-248.95700073242188 94.43000030517578,-248.95700073242188 94.43000030517578,-248.95700073242188 C122.625,-220.76199340820312 146.88400268554688,-196.5030059814453 175.0780029296875,-168.30799865722656 C175.0780029296875,-168.30799865722656 175.0780029296875,168.30799865722656 175.0780029296875,168.30799865722656 C146.88400268554688,196.5030059814453 122.625,220.76199340820312 94.43000030517578,248.95700073242188z"></path></g><g opacity="1" transform="matrix(1,0,0,1,465.46600341796875,639.7839965820312)"><path fill="rgb(26,96,213)" fill-opacity="1" d=" M-18.32200050354004,-106.3270034790039 C-18.32200050354004,-106.3270034790039 45.957000732421875,-70.02799987792969 45.957000732421875,-70.02799987792969 C45.957000732421875,-70.02799987792969 95.1240005493164,-10.036999702453613 95.1240005493164,-10.036999702453613 C95.1240005493164,-10.036999702453613 -21.108999252319336,106.32099914550781 -21.108999252319336,106.32099914550781 C-21.108999252319336,106.32099914550781 -83.58599853515625,53.43299865722656 -83.58599853515625,53.43299865722656 C-83.58599853515625,53.43299865722656 -95.1240005493164,-29.527000427246094 -95.1240005493164,-29.527000427246094 C-95.1240005493164,-29.527000427246094 -18.32200050354004,-106.3270034790039 -18.32200050354004,-106.3270034790039z"></path></g><g opacity="1" transform="matrix(1,0,0,1,95.37300109863281,639.7839965820312)"><path fill="rgb(44,113,226)" fill-opacity="1" d=" M18.322999954223633,-106.3270034790039 C18.322999954223633,-106.3270034790039 -45.638999938964844,-65.14099884033203 -45.638999938964844,-65.14099884033203 C-45.638999938964844,-65.14099884033203 -95.12300109863281,-10.036999702453613 -95.12300109863281,-10.036999702453613 C-95.12300109863281,-10.036999702453613 21.240999221801758,106.3270034790039 21.240999221801758,106.3270034790039 C21.240999221801758,106.3270034790039 68.60299682617188,54.67100143432617 68.60299682617188,54.67100143432617 C68.60299682617188,54.67100143432617 95.12300109863281,-29.527000427246094 95.12300109863281,-29.527000427246094 C95.12300109863281,-29.527000427246094 18.322999954223633,-106.3270034790039 18.322999954223633,-106.3270034790039z"></path></g><g opacity="1" transform="matrix(1,0,0,1,280.4200134277344,678.1840209960938)"><path fill="rgb(15,85,196)" fill-opacity="1" d=" M-89.9229965209961,-67.927001953125 C-89.9229965209961,-67.927001953125 -163.80499267578125,67.927001953125 -163.80499267578125,67.927001953125 C-163.80499267578125,67.927001953125 163.80599975585938,67.927001953125 163.80599975585938,67.927001953125 C163.80599975585938,67.927001953125 89.9219970703125,-67.927001953125 89.9219970703125,-67.927001953125 C89.9219970703125,-67.927001953125 -89.9229965209961,-67.927001953125 -89.9229965209961,-67.927001953125z"></path></g><g opacity="1" transform="matrix(1,0,0,1,465.46600341796875,106.5770034790039)"><path fill="rgb(73,142,255)" fill-opacity="1" d=" M-21.239999771118164,-106.3280029296875 C-21.239999771118164,-106.3280029296875 95.1240005493164,10.03600025177002 95.1240005493164,10.03600025177002 C95.1240005493164,10.03600025177002 50.67900085449219,65.51399993896484 50.67900085449219,65.51399993896484 C50.67900085449219,65.51399993896484 -18.32200050354004,106.3280029296875 -18.32200050354004,106.3280029296875 C-18.32200050354004,106.3280029296875 -95.1240005493164,29.525999069213867 -95.1240005493164,29.525999069213867 C-95.1240005493164,29.525999069213867 -72.0250015258789,-41.38999938964844 -72.0250015258789,-41.38999938964844 C-72.0250015258789,-41.38999938964844 -21.239999771118164,-106.3280029296875 -21.239999771118164,-106.3280029296875z"></path></g><g opacity="1" transform="matrix(1,0,0,1,280.4200134277344,68.177001953125)"><path fill="rgb(115,166,249)" fill-opacity="1" d=" M163.80499267578125,-67.927001953125 C163.80499267578125,-67.927001953125 89.9219970703125,67.927001953125 89.9219970703125,67.927001953125 C89.9219970703125,67.927001953125 -89.92400360107422,67.927001953125 -89.92400360107422,67.927001953125 C-89.92400360107422,67.927001953125 -133.927001953125,16.547000885009766 -133.927001953125,16.547000885009766 C-133.927001953125,16.547000885009766 -163.80499267578125,-67.927001953125 -163.80499267578125,-67.927001953125 C-163.80499267578125,-67.927001953125 163.80499267578125,-67.927001953125 163.80499267578125,-67.927001953125z"></path></g><g opacity="1" transform="matrix(1,0,0,1,503.8659973144531,373.17999267578125)"><path fill="rgb(44,113,226)" fill-opacity="1" d=" M-56.722999572753906,-160.2760009765625 C-56.722999572753906,-160.2760009765625 56.722999572753906,-256.5660095214844 56.722999572753906,-256.5660095214844 C56.722999572753906,-256.5660095214844 56.722999572753906,256.5660095214844 56.722999572753906,256.5660095214844 C56.722999572753906,256.5660095214844 -56.722999572753906,160.2760009765625 -56.722999572753906,160.2760009765625 C-56.722999572753906,160.2760009765625 -56.722999572753906,-160.2760009765625 -56.722999572753906,-160.2760009765625z"></path></g><g opacity="1" transform="matrix(1,0,0,1,56.972999572753906,373.1809997558594)"><path fill="rgb(73,142,255)" fill-opacity="1" d=" M-56.722999572753906,-256.5660095214844 C-56.722999572753906,-256.5660095214844 23.825000762939453,-215.9739990234375 23.825000762939453,-215.9739990234375 C23.825000762939453,-215.9739990234375 56.722999572753906,-160.27499389648438 56.722999572753906,-160.27499389648438 C56.722999572753906,-160.27499389648438 56.722999572753906,160.2760009765625 56.722999572753906,160.2760009765625 C56.722999572753906,160.2760009765625 -56.722999572753906,256.5669860839844 -56.722999572753906,256.5669860839844 C-56.722999572753906,256.5669860839844 -56.722999572753906,-256.5660095214844 -56.722999572753906,-256.5660095214844z"></path></g><g opacity="1" transform="matrix(1,0,0,1,95.37300109863281,106.5770034790039)"><path fill="rgb(147,187,255)" fill-opacity="1" d=" M21.240999221801758,-106.3280029296875 C21.240999221801758,-106.3280029296875 95.12300109863281,29.525999069213867 95.12300109863281,29.525999069213867 C95.12300109863281,29.525999069213867 18.322999954223633,106.3280029296875 18.322999954223633,106.3280029296875 C18.322999954223633,106.3280029296875 -95.12300109863281,10.03600025177002 -95.12300109863281,10.03600025177002 C-95.12300109863281,10.03600025177002 21.240999221801758,-106.3280029296875 21.240999221801758,-106.3280029296875z"></path></g><g opacity="1" transform="matrix(1,0,0,1,280.41900634765625,373.17999267578125)"><path fill="rgb(44,113,226)" fill-opacity="1" d=" M57.047000885009766,157.70399475097656 C57.047000885009766,157.70399475097656 -57.047000885009766,157.70399475097656 -57.047000885009766,157.70399475097656 C-57.047000885009766,157.70399475097656 -87.35199737548828,127.39900207519531 -87.35199737548828,127.39900207519531 C-87.35199737548828,127.39900207519531 -87.35199737548828,-127.39900207519531 -87.35199737548828,-127.39900207519531 C-87.35199737548828,-127.39900207519531 -57.047000885009766,-157.70399475097656 -57.047000885009766,-157.70399475097656 C-57.047000885009766,-157.70399475097656 57.047000885009766,-157.70399475097656 57.047000885009766,-157.70399475097656 C57.047000885009766,-157.70399475097656 87.35199737548828,-127.39900207519531 87.35199737548828,-127.39900207519531 C87.35199737548828,-127.39900207519531 87.35199737548828,127.39900207519531 87.35199737548828,127.39900207519531 C87.35199737548828,127.39900207519531 57.047000885009766,157.70399475097656 57.047000885009766,157.70399475097656z M-55.321998596191406,153.53799438476562 C-55.321998596191406,153.53799438476562 55.321998596191406,153.53799438476562 55.321998596191406,153.53799438476562 C55.321998596191406,153.53799438476562 83.18599700927734,125.6729965209961 83.18599700927734,125.6729965209961 C83.18599700927734,125.6729965209961 83.18599700927734,-125.6729965209961 83.18599700927734,-125.6729965209961 C83.18599700927734,-125.6729965209961 55.321998596191406,-153.53799438476562 55.321998596191406,-153.53799438476562 C55.321998596191406,-153.53799438476562 -55.321998596191406,-153.53799438476562 -55.321998596191406,-153.53799438476562 C-55.321998596191406,-153.53799438476562 -83.18499755859375,-125.6729965209961 -83.18499755859375,-125.6729965209961 C-83.18499755859375,-125.6729965209961 -83.18499755859375,125.6729965209961 -83.18499755859375,125.6729965209961 C-83.18499755859375,125.6729965209961 -55.321998596191406,153.53799438476562 -55.321998596191406,153.53799438476562z"></path></g></g><g class="1" transform="matrix(0.09999966621398926,0.0002590552903711796,-0.0002590552903711796,0.09999966621398926,65.22540283203125,62.67393112182617)" opacity="1" style="display: none;"><g opacity="1" transform="matrix(1,0,0,1,0,0)"><path fill="rgb(203,222,255)" fill-opacity="1" d=" M-122.04399871826172,-307.99700927734375 C-122.04399871826172,-307.99700927734375 -232.79400634765625,-213.2469940185547 -232.79400634765625,-213.2469940185547 C-232.79400634765625,-213.2469940185547 -208.29400634765625,-192.2469940185547 -208.29400634765625,-192.2469940185547 C-208.29400634765625,-192.2469940185547 -111.54399871826172,-286.99700927734375 -111.54399871826172,-286.99700927734375 C-111.54399871826172,-286.99700927734375 -122.04399871826172,-307.99700927734375 -122.04399871826172,-307.99700927734375z"></path></g></g><g style="display: none;" transform="matrix(0.09999974817037582,0.00022319388517644256,-0.00022319388517644256,0.09999974817037582,64.99590301513672,59.315940856933594)" opacity="1"><g opacity="1" transform="matrix(1,0,0,1,0,0)"><path fill="rgb(139,183,255)" fill-opacity="1" d=" M207.67999267578125,57.59403991699219 C207.67999267578125,57.59403991699219 201.63519287109375,167.6381072998047 105.27325439453125,235.5550994873047 C20.030101776123047,295.7684326171875 -132.19061279296875,302.41802978515625 -132.19061279296875,302.41802978515625 C-132.19061279296875,302.41802978515625 -131.90078735351562,302.9432373046875 -131.90078735351562,302.9432373046875 C-131.90078735351562,302.9432373046875 -113.01300048828125,321.0830078125 -113.01300048828125,321.0830078125 C-113.01300048828125,321.0830078125 108.57599639892578,322.88800048828125 108.57599639892578,322.88800048828125 C108.57599639892578,322.88800048828125 163.48699951171875,269.4849853515625 163.48699951171875,269.4849853515625 C163.48699951171875,269.4849853515625 207.10000610351562,227.07000732421875 207.10000610351562,227.07000732421875 C207.10000610351562,227.07000732421875 207.97378540039062,57.81558609008789 207.97378540039062,57.81558609008789 C207.97378540039062,57.81558609008789 207.89181518554688,57.582183837890625 207.89181518554688,57.582183837890625 C207.89181518554688,57.582183837890625 207.67999267578125,57.59403991699219 207.67999267578125,57.59403991699219z"></path></g></g><g class="3" style="display: none;" transform="matrix(0.10000000149011612,0,0,0.10000000149011612,65,59.599998474121094)" opacity="1"><g opacity="1" transform="matrix(1,0,0,1,0,0)"><path fill="rgb(66,133,242)" fill-opacity="1" d=" M-336.5,317 C-336.5,317 -351.25,328.75 -351.25,328.75 C-351.25,328.75 -263.07501220703125,416.8169860839844 -263.07501220703125,416.8169860839844 C-263.07501220703125,416.8169860839844 -206.25,473.75 -206.25,473.75 C-206.25,473.75 -203.75,469.75 -203.75,469.75 C-203.75,469.75 -274.9939880371094,387.21600341796875 -274.9939880371094,387.21600341796875 C-274.9939880371094,387.21600341796875 -336.5,317 -336.5,317z"></path></g></g><g transform="matrix(0.12499989569187164,0.00016611201863270253,-0.00016611201863270253,0.12499989569187164,30.006317138671875,13.58036994934082)" opacity="1" style="display: block;"><g opacity="1" transform="matrix(1,0,0,1,280.41900634765625,373.17999267578125)"><path fill="rgb(44,113,226)" fill-opacity="1" d=" M57.047000885009766,157.70399475097656 C57.047000885009766,157.70399475097656 -57.047000885009766,157.70399475097656 -57.047000885009766,157.70399475097656 C-57.047000885009766,157.70399475097656 -87.35199737548828,127.39900207519531 -87.35199737548828,127.39900207519531 C-87.35199737548828,127.39900207519531 -87.35199737548828,-127.39900207519531 -87.35199737548828,-127.39900207519531 C-87.35199737548828,-127.39900207519531 -57.047000885009766,-157.70399475097656 -57.047000885009766,-157.70399475097656 C-57.047000885009766,-157.70399475097656 57.047000885009766,-157.70399475097656 57.047000885009766,-157.70399475097656 C57.047000885009766,-157.70399475097656 87.35199737548828,-127.39900207519531 87.35199737548828,-127.39900207519531 C87.35199737548828,-127.39900207519531 87.35199737548828,127.39900207519531 87.35199737548828,127.39900207519531 C87.35199737548828,127.39900207519531 57.047000885009766,157.70399475097656 57.047000885009766,157.70399475097656z M-55.321998596191406,153.53799438476562 C-55.321998596191406,153.53799438476562 55.321998596191406,153.53799438476562 55.321998596191406,153.53799438476562 C55.321998596191406,153.53799438476562 83.18599700927734,125.6729965209961 83.18599700927734,125.6729965209961 C83.18599700927734,125.6729965209961 83.18599700927734,-125.6729965209961 83.18599700927734,-125.6729965209961 C83.18599700927734,-125.6729965209961 55.321998596191406,-153.53799438476562 55.321998596191406,-153.53799438476562 C55.321998596191406,-153.53799438476562 -55.321998596191406,-153.53799438476562 -55.321998596191406,-153.53799438476562 C-55.321998596191406,-153.53799438476562 -83.18499755859375,-125.6729965209961 -83.18499755859375,-125.6729965209961 C-83.18499755859375,-125.6729965209961 -83.18499755859375,125.6729965209961 -83.18499755859375,125.6729965209961 C-83.18499755859375,125.6729965209961 -55.321998596191406,153.53799438476562 -55.321998596191406,153.53799438476562z"></path></g></g><g transform="matrix(0.009911201894283295,0.006493545603007078,-0.006493545603007078,0.009911201894283295,43.584136962890625,40.16069793701172)" opacity="0.008972094395407321" style="display: block;"><g opacity="1" transform="matrix(1,0,0,1,0,0)"><path fill="rgb(255,255,255)" fill-opacity="1" d=" M59.625,-53.375 C59.625,-53.375 59.99300003051758,-47.981998443603516 61.61399841308594,-46.097999572753906 C63.07600021362305,-44.39899826049805 68.875,-44.25 68.875,-44.25 C68.875,-44.25 63.46099853515625,-43.130001068115234 61.941001892089844,-41.69499969482422 C60.46099853515625,-40.297000885009766 60.25,-34.75 60.25,-34.75 C60.25,-34.75 60.01900100708008,-40.20800018310547 58.090999603271484,-41.624000549316406 C55.93600082397461,-43.20800018310547 50.625,-43.75 50.625,-43.75 C50.625,-43.75 55.30400085449219,-43.499000549316406 57.63399887084961,-45.48899841308594 C59.78300094604492,-47.32500076293945 59.625,-53.375 59.625,-53.375z"></path></g></g><g transform="matrix(0.4696297347545624,0.31362733244895935,-0.31362733244895935,0.4696297347545624,34.19749450683594,93.31278991699219)" opacity="0.006534792468049488" style="display: none;"><g opacity="1" transform="matrix(1,0,0,1,0,0)"><path fill="rgb(255,255,255)" fill-opacity="1" d=" M59.625,-53.375 C59.625,-53.375 59.99300003051758,-47.981998443603516 61.61399841308594,-46.097999572753906 C63.07600021362305,-44.39899826049805 68.875,-44.25 68.875,-44.25 C68.875,-44.25 63.46099853515625,-43.130001068115234 61.941001892089844,-41.69499969482422 C60.46099853515625,-40.297000885009766 60.25,-34.75 60.25,-34.75 C60.25,-34.75 60.01900100708008,-40.20800018310547 58.090999603271484,-41.624000549316406 C55.93600082397461,-43.20800018310547 50.625,-43.75 50.625,-43.75 C50.625,-43.75 55.30400085449219,-43.499000549316406 57.63399887084961,-45.48899841308594 C59.78300094604492,-47.32500076293945 59.625,-53.375 59.625,-53.375z"></path></g></g></g></svg>