<svg xmlns="http://www.w3.org/2000/svg" xmlns:xlink="http://www.w3.org/1999/xlink" viewBox="0 0 130 130" width="130" height="130" preserveAspectRatio="xMidYMid meet" style="width: 100%; height: 100%; transform: translate3d(0px, 0px, 0px); content-visibility: visible;"><defs><clipPath id="__lottie_element_167"><rect width="130" height="130" x="0" y="0"></rect></clipPath></defs><g clip-path="url(#__lottie_element_167)"><g transform="matrix(0.11999640613794327,-0.0009292967733927071,0.0009292967733927071,0.11999640613794327,8.113603591918945,5.690013885498047)" opacity="1" style="display: block;"><g opacity="1" transform="matrix(1,0,0,1,470.072998046875,470.072998046875)"><path fill="rgb(0,199,2)" fill-opacity="1" d=" M77.00199890136719,-389.822998046875 C77.00199890136719,-389.822998046875 -77.00199890136719,-389.822998046875 -77.00199890136719,-389.822998046875 C-77.00199890136719,-389.822998046875 -389.822998046875,-77.00199890136719 -389.822998046875,-77.00199890136719 C-389.822998046875,-77.00199890136719 -389.822998046875,77.00199890136719 -389.822998046875,77.00199890136719 C-389.822998046875,77.00199890136719 -77.00199890136719,389.822998046875 -77.00199890136719,389.822998046875 C-77.00199890136719,389.822998046875 77.00199890136719,389.822998046875 77.00199890136719,389.822998046875 C77.00199890136719,389.822998046875 389.822998046875,77.00199890136719 389.822998046875,77.00199890136719 C389.822998046875,77.00199890136719 389.822998046875,-77.00199890136719 389.822998046875,-77.00199890136719 C389.822998046875,-77.00199890136719 77.00199890136719,-389.822998046875 77.00199890136719,-389.822998046875z"></path></g><g opacity="1" transform="matrix(1,0,0,1,799.3319702148438,470.0740051269531)"><path fill="rgb(26,211,27)" fill-opacity="1" d=" M-53.676998138427734,-55.82899856567383 C-53.676998138427734,-55.82899856567383 -60.356998443603516,76.13700103759766 -60.356998443603516,76.13700103759766 C-60.356998443603516,76.13700103759766 60.356998443603516,77.21099853515625 60.356998443603516,77.21099853515625 C60.356998443603516,77.21099853515625 60.356998443603516,-77.20999908447266 60.356998443603516,-77.20999908447266 C60.356998443603516,-77.20999908447266 -53.676998138427734,-55.82899856567383 -53.676998138427734,-55.82899856567383z"></path></g><g opacity="1" transform="matrix(1,0,0,1,677.64599609375,693.8140258789062)"><path fill="rgb(0,162,2)" fill-opacity="1" d=" M182.25100708007812,-156.11399841308594 C182.25100708007812,-156.11399841308594 66.37000274658203,-166.08200073242188 66.37000274658203,-166.08200073242188 C66.37000274658203,-166.08200073242188 -182.25100708007812,8.625 -182.25100708007812,8.625 C-182.25100708007812,8.625 -138.2760009765625,166.08200073242188 -138.2760009765625,166.08200073242188 C-138.2760009765625,166.08200073242188 -130.57000732421875,166.08200073242188 -130.57000732421875,166.08200073242188 C-130.57000732421875,166.08200073242188 182.25100708007812,-146.73899841308594 182.25100708007812,-146.73899841308594 C182.25100708007812,-146.73899841308594 182.25100708007812,-156.11399841308594 182.25100708007812,-156.11399841308594z"></path></g><g opacity="1" transform="matrix(1,0,0,1,470.072998046875,802.1820068359375)"><path fill="rgb(0,134,1)" fill-opacity="1" d=" M54.64099884033203,-57.71500015258789 C54.64099884033203,-57.71500015258789 -55.82899856567383,-56.52799987792969 -55.82899856567383,-56.52799987792969 C-55.82899856567383,-56.52799987792969 -77.00199890136719,57.71500015258789 -77.00199890136719,57.71500015258789 C-77.00199890136719,57.71500015258789 77.00199890136719,57.71500015258789 77.00199890136719,57.71500015258789 C77.00199890136719,57.71500015258789 54.64099884033203,-57.71500015258789 54.64099884033203,-57.71500015258789z"></path></g><g opacity="1" transform="matrix(1,0,0,1,470.072998046875,470.0740051269531)"><path fill="rgb(28,230,29)" fill-opacity="1" d=" M54.66600036621094,-276.7449951171875 C54.66600036621094,-276.7449951171875 -54.66600036621094,-276.7449951171875 -54.66600036621094,-276.7449951171875 C-54.66600036621094,-276.7449951171875 -276.7439880371094,-54.66600036621094 -276.7439880371094,-54.66600036621094 C-276.7439880371094,-54.66600036621094 -276.7439880371094,54.66600036621094 -276.7439880371094,54.66600036621094 C-276.7439880371094,54.66600036621094 -54.66600036621094,276.7449951171875 -54.66600036621094,276.7449951171875 C-54.66600036621094,276.7449951171875 54.66600036621094,276.7449951171875 54.66600036621094,276.7449951171875 C54.66600036621094,276.7449951171875 276.7449951171875,54.66600036621094 276.7449951171875,54.66600036621094 C276.7449951171875,54.66600036621094 276.7449951171875,-54.66600036621094 276.7449951171875,-54.66600036621094 C276.7449951171875,-54.66600036621094 54.66600036621094,-276.7449951171875 54.66600036621094,-276.7449951171875z"></path></g><g opacity="1" transform="matrix(1,0,0,1,470.072998046875,470.072998046875)"><path fill="rgb(0,199,2)" fill-opacity="1" d=" M18.687000274658203,178.71400451660156 C18.687000274658203,178.71400451660156 -18.687000274658203,178.71400451660156 -18.687000274658203,178.71400451660156 C-29.753999710083008,178.71400451660156 -40.15599822998047,174.40499877929688 -47.98099899291992,166.5800018310547 C-47.98099899291992,166.5800018310547 -166.5800018310547,47.981998443603516 -166.5800018310547,47.981998443603516 C-174.40499877929688,40.15700149536133 -178.71499633789062,29.753000259399414 -178.71499633789062,18.687999725341797 C-178.71499633789062,18.687999725341797 -178.71499633789062,-18.687000274658203 -178.71499633789062,-18.687000274658203 C-178.71499633789062,-29.753000259399414 -174.40499877929688,-40.15599822998047 -166.5800018310547,-47.98099899291992 C-166.5800018310547,-47.98099899291992 -47.98099899291992,-166.57899475097656 -47.98099899291992,-166.57899475097656 C-40.15599822998047,-174.4040069580078 -29.753999710083008,-178.71400451660156 -18.687000274658203,-178.71400451660156 C-18.687000274658203,-178.71400451660156 18.687000274658203,-178.71400451660156 18.687000274658203,-178.71400451660156 C29.753999710083008,-178.71400451660156 40.15599822998047,-174.4040069580078 47.98099899291992,-166.57899475097656 C47.98099899291992,-166.57899475097656 166.5800018310547,-47.98099899291992 166.5800018310547,-47.98099899291992 C174.40499877929688,-40.15599822998047 178.71499633789062,-29.753000259399414 178.71499633789062,-18.687000274658203 C178.71499633789062,-18.687000274658203 178.71499633789062,18.687999725341797 178.71499633789062,18.687999725341797 C178.71499633789062,29.753000259399414 174.40499877929688,40.15700149536133 166.5800018310547,47.981998443603516 C166.5800018310547,47.981998443603516 47.98099899291992,166.5800018310547 47.98099899291992,166.5800018310547 C40.15599822998047,174.40499877929688 29.753999710083008,178.71400451660156 18.687000274658203,178.71400451660156z M-18.687000274658203,-173.6739959716797 C-28.406999588012695,-173.6739959716797 -37.54499816894531,-169.88900756835938 -44.417999267578125,-163.01600646972656 C-44.417999267578125,-163.01600646972656 -163.01699829101562,-44.417999267578125 -163.01699829101562,-44.417999267578125 C-169.89100646972656,-37.54399871826172 -173.6750030517578,-28.4060001373291 -173.6750030517578,-18.687000274658203 C-173.6750030517578,-18.687000274658203 -173.6750030517578,18.687999725341797 -173.6750030517578,18.687999725341797 C-173.6750030517578,28.408000946044922 -169.89100646972656,37.54499816894531 -163.01699829101562,44.417999267578125 C-163.01699829101562,44.417999267578125 -44.417999267578125,163.01699829101562 -44.417999267578125,163.01699829101562 C-37.54499816894531,169.88999938964844 -28.406999588012695,173.6750030517578 -18.687000274658203,173.6750030517578 C-18.687000274658203,173.6750030517578 18.687000274658203,173.6750030517578 18.687000274658203,173.6750030517578 C28.406999588012695,173.6750030517578 37.54399871826172,169.88999938964844 44.417999267578125,163.01699829101562 C44.417999267578125,163.01699829101562 163.01699829101562,44.417999267578125 163.01699829101562,44.417999267578125 C169.89100646972656,37.54499816894531 173.6750030517578,28.408000946044922 173.6750030517578,18.687999725341797 C173.6750030517578,18.687999725341797 173.6750030517578,-18.687000274658203 173.6750030517578,-18.687000274658203 C173.6750030517578,-28.4060001373291 169.89100646972656,-37.54399871826172 163.01699829101562,-44.417999267578125 C163.01699829101562,-44.417999267578125 44.417999267578125,-163.01600646972656 44.417999267578125,-163.01600646972656 C37.54399871826172,-169.88900756835938 28.406999588012695,-173.6739959716797 18.687000274658203,-173.6739959716797 C18.687000274658203,-173.6739959716797 -18.687000274658203,-173.6739959716797 -18.687000274658203,-173.6739959716797z"></path></g><g opacity="1" transform="matrix(1,0,0,1,137.47500610351562,470.072998046875)"><path fill="rgb(0,162,2)" fill-opacity="1" d=" M-57.611000061035156,76.61599731445312 C-57.611000061035156,76.61599731445312 56.42300033569336,55.23500061035156 56.42300033569336,55.23500061035156 C56.42300033569336,55.23500061035156 57.611000061035156,-55.23500061035156 57.611000061035156,-55.23500061035156 C57.611000061035156,-55.23500061035156 -56.42300033569336,-76.61599731445312 -56.42300033569336,-76.61599731445312 C-56.42300033569336,-76.61599731445312 -57.611000061035156,76.61599731445312 -57.611000061035156,76.61599731445312z"></path></g><g opacity="1" transform="matrix(1,0,0,1,469.47900390625,138.06900024414062)"><path fill="rgb(54,255,54)" fill-opacity="1" d=" M-55.82899856567383,58.20399856567383 C-55.82899856567383,58.20399856567383 -77.20999908447266,-58.20399856567383 -77.20999908447266,-58.20399856567383 C-77.20999908447266,-58.20399856567383 77.20999908447266,-58.20399856567383 77.20999908447266,-58.20399856567383 C77.20999908447266,-58.20399856567383 55.82899856567383,55.827999114990234 55.82899856567383,55.827999114990234 C55.82899856567383,55.827999114990234 -55.82899856567383,58.20399856567383 -55.82899856567383,58.20399856567383z"></path></g></g><g transform="matrix(0.09999307245016098,0.0011775509919971228,-0.0011775509919971228,0.09999307245016098,64.96363067626953,67.6695327758789)" opacity="1" style="display: none;"><g opacity="1" transform="matrix(1,0,0,1,0,0)"><path fill="rgb(177,252,177)" fill-opacity="1" d=" M-28.577999114990234,-360.5570068359375 C-28.577999114990234,-360.5570068359375 -47.69499969482422,-364.4590148925781 -60.02299880981445,-374.927001953125 C-72.35099792480469,-385.3949890136719 -80.177001953125,-407.4880065917969 -80.177001953125,-407.4880065917969 C-80.177001953125,-407.4880065917969 -70.74099731445312,-359.48199462890625 -70.74099731445312,-359.48199462890625 C-70.74099731445312,-359.48199462890625 -70.80999755859375,-359.43499755859375 -70.80999755859375,-359.43499755859375 C-70.80999755859375,-359.43499755859375 -70.71900177001953,-359.3710021972656 -70.71900177001953,-359.3710021972656 C-70.71900177001953,-359.3710021972656 -70.50900268554688,-359.4219970703125 -70.50900268554688,-359.4219970703125 C-70.50900268554688,-359.4219970703125 -70.50900268554688,-359.6730041503906 -70.50900268554688,-359.6730041503906 C-70.50900268554688,-359.6730041503906 -28.577999114990234,-360.5570068359375 -28.577999114990234,-360.5570068359375z"></path></g></g><g style="display: none;" transform="matrix(0.0999997928738594,0.00020415335893630981,-0.00020415335893630981,0.0999997928738594,64.99795532226562,64.6024169921875)" opacity="1"><g opacity="1" transform="matrix(1,0,0,1,0,0)"><path fill="rgb(61,255,62)" fill-opacity="1" d=" M136.3159942626953,251.5050048828125 C136.3159942626953,251.5050048828125 105.98300170898438,259.27899169921875 -3.1519999504089355,258.9930114746094 C-101.02200317382812,258.73699951171875 -140.9759979248047,249.2899932861328 -140.9759979248047,249.2899932861328 C-140.9759979248047,249.2899932861328 -67.59400177001953,322.2279968261719 -67.59400177001953,322.2279968261719 C-67.59400177001953,322.2279968261719 -67.76399993896484,322.3819885253906 -67.76399993896484,322.3819885253906 C-67.76399993896484,322.3819885253906 -67.83699798583984,322.4150085449219 -67.83699798583984,322.4150085449219 C-67.83699798583984,322.4150085449219 -67.50700378417969,322.6780090332031 -67.50700378417969,322.6780090332031 C-67.50700378417969,322.6780090332031 66.35600280761719,322.10101318359375 66.35600280761719,322.10101318359375 C66.35600280761719,322.10101318359375 66.02100372314453,322.0679931640625 66.02100372314453,322.0679931640625 C66.02100372314453,322.0679931640625 66.03199768066406,321.989990234375 66.03199768066406,321.989990234375 C66.03199768066406,321.989990234375 136.3159942626953,251.5050048828125 136.3159942626953,251.5050048828125z"></path></g></g><g transform="matrix(0.09999311715364456,0.0011734726140275598,-0.0011734726140275598,0.09999311715364456,64.97510528564453,67.08484649658203)" opacity="1" style="display: none;"><g opacity="1" transform="matrix(1,0,0,1,0,0)"><path fill="rgb(10,228,12)" fill-opacity="1" d=" M-412.302001953125,-168.68299865722656 C-412.302001953125,-168.68299865722656 -468.1310119628906,-112.13600158691406 -468.1310119628906,-112.13600158691406 C-468.1310119628906,-112.13600158691406 -468.218994140625,-111.68900299072266 -468.218994140625,-111.68900299072266 C-468.218994140625,-111.68900299072266 -401.13299560546875,-99.45999908447266 -401.13299560546875,-99.45999908447266 C-401.13299560546875,-99.45999908447266 -400.96600341796875,-99.54000091552734 -400.96600341796875,-99.54000091552734 C-400.96600341796875,-99.54000091552734 -412.302001953125,-168.68299865722656 -412.302001953125,-168.68299865722656z"></path></g></g><g style="display: none;" transform="matrix(0.09999538958072662,-0.0009611067362129688,0.0009611067362129688,0.09999538958072662,65.00189971923828,62.51056671142578)" opacity="1"><g opacity="1" transform="matrix(1,0,0,1,0,0)"><path fill="rgb(10,228,12)" fill-opacity="1" d=" M-68.79399871826172,331.1969909667969 C-68.79399871826172,331.1969909667969 -97.87699890136719,301.6830139160156 -97.87699890136719,301.6830139160156 C-97.87699890136719,301.6830139160156 -141.36300659179688,419.1109924316406 -141.36300659179688,419.1109924316406 C-141.36300659179688,419.1109924316406 -94.7770004272461,466.03399658203125 -94.7770004272461,466.03399658203125 C-94.7770004272461,466.03399658203125 -69.08000183105469,331.7560119628906 -69.08000183105469,331.7560119628906 C-69.08000183105469,331.7560119628906 -68.79399871826172,331.1969909667969 -68.79399871826172,331.1969909667969z"></path></g></g><g transform="matrix(0.11999640613794327,-0.0009292967733927071,0.0009292967733927071,0.11999640613794327,8.113603591918945,5.690013885498047)" opacity="1" style="display: block;"><g opacity="1" transform="matrix(1,0,0,1,470.072998046875,470.072998046875)"><path fill="rgb(0,199,2)" fill-opacity="1" d=" M18.687000274658203,178.71400451660156 C18.687000274658203,178.71400451660156 -18.687000274658203,178.71400451660156 -18.687000274658203,178.71400451660156 C-29.753999710083008,178.71400451660156 -40.15599822998047,174.40499877929688 -47.98099899291992,166.5800018310547 C-47.98099899291992,166.5800018310547 -166.5800018310547,47.981998443603516 -166.5800018310547,47.981998443603516 C-174.40499877929688,40.15700149536133 -178.71499633789062,29.753000259399414 -178.71499633789062,18.687999725341797 C-178.71499633789062,18.687999725341797 -178.71499633789062,-18.687000274658203 -178.71499633789062,-18.687000274658203 C-178.71499633789062,-29.753000259399414 -174.40499877929688,-40.15599822998047 -166.5800018310547,-47.98099899291992 C-166.5800018310547,-47.98099899291992 -47.98099899291992,-166.57899475097656 -47.98099899291992,-166.57899475097656 C-40.15599822998047,-174.4040069580078 -29.753999710083008,-178.71400451660156 -18.687000274658203,-178.71400451660156 C-18.687000274658203,-178.71400451660156 18.687000274658203,-178.71400451660156 18.687000274658203,-178.71400451660156 C29.753999710083008,-178.71400451660156 40.15599822998047,-174.4040069580078 47.98099899291992,-166.57899475097656 C47.98099899291992,-166.57899475097656 166.5800018310547,-47.98099899291992 166.5800018310547,-47.98099899291992 C174.40499877929688,-40.15599822998047 178.71499633789062,-29.753000259399414 178.71499633789062,-18.687000274658203 C178.71499633789062,-18.687000274658203 178.71499633789062,18.687999725341797 178.71499633789062,18.687999725341797 C178.71499633789062,29.753000259399414 174.40499877929688,40.15700149536133 166.5800018310547,47.981998443603516 C166.5800018310547,47.981998443603516 47.98099899291992,166.5800018310547 47.98099899291992,166.5800018310547 C40.15599822998047,174.40499877929688 29.753999710083008,178.71400451660156 18.687000274658203,178.71400451660156z M-18.687000274658203,-173.6739959716797 C-28.406999588012695,-173.6739959716797 -37.54499816894531,-169.88900756835938 -44.417999267578125,-163.01600646972656 C-44.417999267578125,-163.01600646972656 -163.01699829101562,-44.417999267578125 -163.01699829101562,-44.417999267578125 C-169.89100646972656,-37.54399871826172 -173.6750030517578,-28.4060001373291 -173.6750030517578,-18.687000274658203 C-173.6750030517578,-18.687000274658203 -173.6750030517578,18.687999725341797 -173.6750030517578,18.687999725341797 C-173.6750030517578,28.408000946044922 -169.89100646972656,37.54499816894531 -163.01699829101562,44.417999267578125 C-163.01699829101562,44.417999267578125 -44.417999267578125,163.01699829101562 -44.417999267578125,163.01699829101562 C-37.54499816894531,169.88999938964844 -28.406999588012695,173.6750030517578 -18.687000274658203,173.6750030517578 C-18.687000274658203,173.6750030517578 18.687000274658203,173.6750030517578 18.687000274658203,173.6750030517578 C28.406999588012695,173.6750030517578 37.54399871826172,169.88999938964844 44.417999267578125,163.01699829101562 C44.417999267578125,163.01699829101562 163.01699829101562,44.417999267578125 163.01699829101562,44.417999267578125 C169.89100646972656,37.54499816894531 173.6750030517578,28.408000946044922 173.6750030517578,18.687999725341797 C173.6750030517578,18.687999725341797 173.6750030517578,-18.687000274658203 173.6750030517578,-18.687000274658203 C173.6750030517578,-28.4060001373291 169.89100646972656,-37.54399871826172 163.01699829101562,-44.417999267578125 C163.01699829101562,-44.417999267578125 44.417999267578125,-163.01600646972656 44.417999267578125,-163.01600646972656 C37.54399871826172,-169.88900756835938 28.406999588012695,-173.6739959716797 18.687000274658203,-173.6739959716797 C18.687000274658203,-173.6739959716797 -18.687000274658203,-173.6739959716797 -18.687000274658203,-173.6739959716797z"></path></g></g><g style="display: none;" transform="matrix(-0.01603793539106846,-0.21327142417430878,0.21327142417430878,-0.01603793539106846,104.3080825805664,63.435035705566406)" opacity="0.000017441430352249653"><g opacity="1" transform="matrix(1,0,0,1,0,0)"><path fill="rgb(255,255,255)" fill-opacity="1" d=" M59.625,-53.375 C59.625,-53.375 59.99300003051758,-47.981998443603516 61.61399841308594,-46.097999572753906 C63.07600021362305,-44.39899826049805 68.875,-44.25 68.875,-44.25 C68.875,-44.25 63.46099853515625,-43.130001068115234 61.941001892089844,-41.69499969482422 C60.46099853515625,-40.297000885009766 60.25,-34.75 60.25,-34.75 C60.25,-34.75 60.01900100708008,-40.20800018310547 58.090999603271484,-41.624000549316406 C55.93600082397461,-43.20800018310547 50.625,-43.75 50.625,-43.75 C50.625,-43.75 55.30400085449219,-43.499000549316406 57.63399887084961,-45.48899841308594 C59.78300094604492,-47.32500076293945 59.625,-53.375 59.625,-53.375z"></path></g></g><g style="display: block;" transform="matrix(0.033557724207639694,0.43181464076042175,-0.43181464076042175,0.033557724207639694,37.17405700683594,70.79251861572266)" opacity="0.1785093918152356"><g opacity="1" transform="matrix(1,0,0,1,0,0)"><path fill="rgb(255,255,255)" fill-opacity="1" d=" M59.625,-53.375 C59.625,-53.375 59.99300003051758,-47.981998443603516 61.61399841308594,-46.097999572753906 C63.07600021362305,-44.39899826049805 68.875,-44.25 68.875,-44.25 C68.875,-44.25 63.46099853515625,-43.130001068115234 61.941001892089844,-41.69499969482422 C60.46099853515625,-40.297000885009766 60.25,-34.75 60.25,-34.75 C60.25,-34.75 60.01900100708008,-40.20800018310547 58.090999603271484,-41.624000549316406 C55.93600082397461,-43.20800018310547 50.625,-43.75 50.625,-43.75 C50.625,-43.75 55.30400085449219,-43.499000549316406 57.63399887084961,-45.48899841308594 C59.78300094604492,-47.32500076293945 59.625,-53.375 59.625,-53.375z"></path></g></g></g></svg>