<svg xmlns="http://www.w3.org/2000/svg" xmlns:xlink="http://www.w3.org/1999/xlink" viewBox="0 0 130 130" width="130" height="130" preserveAspectRatio="xMidYMid meet" style="width: 100%; height: 100%; transform: translate3d(0px, 0px, 0px); content-visibility: visible;"><defs><clipPath id="__lottie_element_2"><rect width="130" height="130" x="0" y="0"></rect></clipPath></defs><g clip-path="url(#__lottie_element_2)"><g transform="matrix(0.12074994295835495,0.00011630354129010811,-0.00011630354129010811,0.12074994295835495,16.093420028686523,5.921843528747559)" opacity="1" style="display: block;"><g opacity="1" transform="matrix(1,0,0,1,405.10198974609375,473.4530029296875)"><path fill="rgb(190,79,145)" fill-opacity="1" d=" M335.54400634765625,248.69700622558594 C335.54400634765625,248.69700622558594 335.54400634765625,-248.69700622558594 335.54400634765625,-248.69700622558594 C335.54400634765625,-248.69700622558594 0,-392.19500732421875 0,-392.19500732421875 C0,-392.19500732421875 -335.54400634765625,-248.69700622558594 -335.54400634765625,-248.69700622558594 C-335.54400634765625,-248.69700622558594 -335.54400634765625,248.69700622558594 -335.54400634765625,248.69700622558594 C-335.54400634765625,248.69700622558594 0,392.19500732421875 0,392.19500732421875 C0,392.19500732421875 335.54400634765625,248.69700622558594 335.54400634765625,248.69700622558594z"></path></g><g opacity="1" transform="matrix(1,0,0,1,549.666015625,214.87399291992188)"><path fill="rgb(255,130,204)" fill-opacity="1" d=" M-144.56399536132812,-133.61599731445312 C-173.97999572753906,-78.0199966430664 -190.97999572753906,-27.00200080871582 -143.32699584960938,0.17100000381469727 C-136.45799255371094,93.30599975585938 -78.60900115966797,133.61500549316406 62.02899932861328,88.13899993896484 C121.3239974975586,122.76599884033203 159.31199645996094,78.08200073242188 190.9810028076172,9.883999824523926 C190.9810028076172,9.883999824523926 -144.56399536132812,-133.61599731445312 -144.56399536132812,-133.61599731445312z"></path></g><g opacity="1" transform="matrix(1,0,0,1,572.8740234375,732.0330200195312)"><path fill="rgb(188,42,129)" fill-opacity="1" d=" M-167.77200317382812,133.61500549316406 C-167.77200317382812,133.61500549316406 -166.53500366210938,-0.17100000381469727 -166.53500366210938,-0.17100000381469727 C-159.66600036621094,-93.30599975585938 -101.81700134277344,-133.61500549316406 38.82099914550781,-88.13999938964844 C94.83399963378906,-130.0989990234375 134.3820037841797,-86.06900024414062 167.7729949951172,-9.883000373840332 C167.7729949951172,-9.883000373840332 -167.77200317382812,133.61500549316406 -167.77200317382812,133.61500549316406z"></path></g><g opacity="1" transform="matrix(1,0,0,1,579.7030029296875,473.4540100097656)"><path fill="rgb(255,145,210)" fill-opacity="1" d=" M31.993000030517578,-170.44000244140625 C-160.94400024414062,-170.44000244140625 -160.94400024414062,170.43899536132812 31.993000030517578,170.43899536132812 C31.993000030517578,170.43899536132812 160.94400024414062,248.6959991455078 160.94400024414062,248.6959991455078 C160.94400024414062,248.6959991455078 160.94400024414062,-248.6959991455078 160.94400024414062,-248.6959991455078 C160.94400024414062,-248.6959991455078 31.993000030517578,-170.44000244140625 31.993000030517578,-170.44000244140625z"></path></g><g opacity="1" transform="matrix(1,0,0,1,237.94900512695312,214.87399291992188)"><path fill="rgb(255,198,232)" fill-opacity="1" d=" M167.1540069580078,-133.61599731445312 C167.1540069580078,-133.61599731445312 168.39100646972656,7.500999927520752 168.39100646972656,7.500999927520752 C161.52200317382812,100.63600158691406 101.197998046875,133.61500549316406 -39.439998626708984,88.13899993896484 C-88.5260009765625,115.13800048828125 -128.69200134277344,64.53600311279297 -168.39100646972656,9.883999824523926 C-168.39100646972656,9.883999824523926 167.1540069580078,-133.61599731445312 167.1540069580078,-133.61599731445312z"></path></g><g opacity="1" transform="matrix(1,0,0,1,237.94900512695312,732.0330200195312)"><path fill="rgb(219,71,159)" fill-opacity="1" d=" M167.1540069580078,133.61500549316406 C167.1540069580078,133.61500549316406 168.39100646972656,-11.166999816894531 168.39100646972656,-11.166999816894531 C161.52200317382812,-104.302001953125 101.197998046875,-133.61500549316406 -39.439998626708984,-88.13999938964844 C-94.94999694824219,-129.6929931640625 -132.86000061035156,-76.20700073242188 -168.39100646972656,-9.883000373840332 C-168.39100646972656,-9.883000373840332 167.1540069580078,133.61500549316406 167.1540069580078,133.61500549316406z"></path></g><g opacity="1" transform="matrix(1,0,0,1,230.5019989013672,473.4540100097656)"><path fill="rgb(255,145,210)" fill-opacity="1" d=" M-31.993000030517578,-170.44000244140625 C160.94400024414062,-170.44000244140625 160.94400024414062,170.43899536132812 -31.993000030517578,170.43899536132812 C-31.993000030517578,170.43899536132812 -160.94400024414062,248.6959991455078 -160.94400024414062,248.6959991455078 C-160.94400024414062,248.6959991455078 -160.94400024414062,-248.6959991455078 -160.94400024414062,-248.6959991455078 C-160.94400024414062,-248.6959991455078 -31.993000030517578,-170.44000244140625 -31.993000030517578,-170.44000244140625z"></path></g><g opacity="1" transform="matrix(1,0,0,1,405.10198974609375,473.4540100097656)"><path fill="rgb(255,105,193)" fill-opacity="1" d=" M206.24600219726562,169.73399353027344 C206.24600219726562,169.73399353027344 206.24600219726562,-169.73399353027344 206.24600219726562,-169.73399353027344 C206.24600219726562,-169.73399353027344 0,-257.93701171875 0,-257.93701171875 C0,-257.93701171875 -206.24600219726562,-169.73399353027344 -206.24600219726562,-169.73399353027344 C-206.24600219726562,-169.73399353027344 -206.24600219726562,169.73399353027344 -206.24600219726562,169.73399353027344 C-206.24600219726562,169.73399353027344 0,257.93701171875 0,257.93701171875 C0,257.93701171875 206.24600219726562,169.73399353027344 206.24600219726562,169.73399353027344z"></path></g></g><g class="1 1" style="display: none;" transform="matrix(0.9999950528144836,-0.0030020985286682844,0.0030020985286682844,0.9999950528144836,65.0024185180664,64.3934555053711)" opacity="1"><g opacity="1" transform="matrix(1,0,0,1,0,0)"><path fill="rgb(254,198,231)" fill-opacity="1" d=" M24.74799919128418,18.48699951171875 C24.74799919128418,18.48699951171875 -2.2720000743865967,29.489999771118164 -2.2720000743865967,29.489999771118164 C-2.2720000743865967,29.489999771118164 -2.2720000743865967,29.520999908447266 -2.2720000743865967,29.520999908447266 C-2.2720000743865967,29.520999908447266 -0.18700000643730164,30.399999618530273 -0.18700000643730164,30.399999618530273 C-0.18700000643730164,30.399999618530273 24.72599983215332,19.94300079345703 24.72599983215332,19.94300079345703 C24.72599983215332,19.94300079345703 24.74799919128418,18.48699951171875 24.74799919128418,18.48699951171875 C24.74799919128418,18.48699951171875 24.74799919128418,18.48699951171875 24.74799919128418,18.48699951171875z"></path></g></g><g class="4 4" style="display: none;" transform="matrix(0.9999901652336121,0.004353258293122053,-0.004353258293122053,0.9999901652336121,64.99549865722656,65.82320404052734)" opacity="1"><g opacity="1" transform="matrix(1,0,0,1,0,0)"><path fill="rgb(250,233,243)" fill-opacity="1" d=" M25.035999298095703,13.222000122070312 C25.035999298095703,13.222000122070312 -6.754000186920166,27.295000076293945 -6.754000186920166,27.295000076293945 C-6.754000186920166,27.295000076293945 -0.02500000037252903,30.298999786376953 -0.02500000037252903,30.298999786376953 C-0.02500000037252903,30.298999786376953 24.91200065612793,19.690000534057617 24.91200065612793,19.690000534057617 C24.91200065612793,19.690000534057617 25.035999298095703,13.222000122070312 25.035999298095703,13.222000122070312z"></path></g></g><g class="2 2" transform="matrix(0.9999996423721313,-0.00001912967491080053,0.00001912967491080053,0.9999996423721313,64.99996185302734,64.9986801147461)" opacity="1" style="display: none;"><g opacity="1" transform="matrix(1,0,0,1,0,0)"><path fill="rgb(250,233,243)" fill-opacity="1" d=" M0.33799999952316284,-36 C0.33799999952316284,-36 -29.038000106811523,-23.35099983215332 -29.038000106811523,-23.35099983215332 C-29.038000106811523,-23.35099983215332 -24.701000213623047,-20.649999618530273 -24.701000213623047,-20.649999618530273 C-24.701000213623047,-20.649999618530273 0.3370000123977661,-31.187000274658203 0.3370000123977661,-31.187000274658203 C0.3370000123977661,-31.187000274658203 0.33799999952316284,-36 0.33799999952316284,-36z"></path></g></g><g class="3 3" style="display: none;" transform="matrix(0.999987781047821,-0.004869585856795311,0.004869585856795311,0.999987781047821,65.00008392333984,63.62065505981445)" opacity="1"><g opacity="1" transform="matrix(1,0,0,1,0,0)"><path fill="rgb(255,145,210)" fill-opacity="1" d=" M-39.41699981689453,28.895000457763672 C-39.41699981689453,28.895000457763672 -40.77399826049805,29.725000381469727 -40.77399826049805,29.725000381469727 C-40.77399826049805,29.725000381469727 -0.4359999895095825,47.3489990234375 -0.4359999895095825,47.3489990234375 C-0.4359999895095825,47.3489990234375 -0.41100001335144043,45.13600158691406 -0.41100001335144043,45.13600158691406 C-0.41100001335144043,45.13600158691406 -39.41699981689453,28.895000457763672 -39.41699981689453,28.895000457763672z"></path></g></g><g style="display: block;" transform="matrix(0.5478950142860413,-0.721027135848999,0.721027135848999,0.5478950142860413,39.113983154296875,121.5025863647461)" opacity="0.8623466585290835"><g opacity="1" transform="matrix(1,0,0,1,0,0)"><path fill="rgb(255,255,255)" fill-opacity="1" d=" M59.625,-53.375 C59.625,-53.375 59.99300003051758,-47.981998443603516 61.61399841308594,-46.097999572753906 C63.07600021362305,-44.39899826049805 68.875,-44.25 68.875,-44.25 C68.875,-44.25 63.46099853515625,-43.130001068115234 61.941001892089844,-41.69499969482422 C60.46099853515625,-40.297000885009766 60.25,-34.75 60.25,-34.75 C60.25,-34.75 60.01900100708008,-40.20800018310547 58.090999603271484,-41.624000549316406 C55.93600082397461,-43.20800018310547 50.625,-43.75 50.625,-43.75 C50.625,-43.75 55.30400085449219,-43.499000549316406 57.63399887084961,-45.48899841308594 C59.78300094604492,-47.32500076293945 59.625,-53.375 59.625,-53.375z"></path></g></g><g style="display: block;" transform="matrix(0.4950762689113617,0.18107448518276215,-0.18107448518276215,0.4950762689113617,67.28422546386719,103.95445251464844)" opacity="0.26599623015861684"><g opacity="1" transform="matrix(1,0,0,1,0,0)"><path fill="rgb(255,255,255)" fill-opacity="1" d=" M59.625,-53.375 C59.625,-53.375 59.99300003051758,-47.981998443603516 61.61399841308594,-46.097999572753906 C63.07600021362305,-44.39899826049805 68.875,-44.25 68.875,-44.25 C68.875,-44.25 63.46099853515625,-43.130001068115234 61.941001892089844,-41.69499969482422 C60.46099853515625,-40.297000885009766 60.25,-34.75 60.25,-34.75 C60.25,-34.75 60.01900100708008,-40.20800018310547 58.090999603271484,-41.624000549316406 C55.93600082397461,-43.20800018310547 50.625,-43.75 50.625,-43.75 C50.625,-43.75 55.30400085449219,-43.499000549316406 57.63399887084961,-45.48899841308594 C59.78300094604492,-47.32500076293945 59.625,-53.375 59.625,-53.375z"></path></g></g></g></svg>