<svg xmlns="http://www.w3.org/2000/svg" xmlns:xlink="http://www.w3.org/1999/xlink" viewBox="0 0 130 130" width="130" height="130" preserveAspectRatio="xMidYMid meet" style="width: 100%; height: 100%; transform: translate3d(0px, 0px, 0px); content-visibility: visible;"><defs><clipPath id="__lottie_element_304"><rect width="130" height="130" x="0" y="0"></rect></clipPath></defs><g clip-path="url(#__lottie_element_304)"><g transform="matrix(0.12499775737524033,0.000747324840631336,-0.000747324840631336,0.12499775737524033,9.708250999450684,8.896764755249023)" opacity="1" style="display: block;"><g opacity="1" transform="matrix(1,0,0,1,444.8210144042969,444.8210144042969)"><path fill="rgb(248,106,102)" fill-opacity="1" d=" M364.5710144042969,0 C364.5710144042969,201.3470001220703 201.3470001220703,364.5710144042969 0,364.5710144042969 C-201.3470001220703,364.5710144042969 -364.5710144042969,201.3470001220703 -364.5710144042969,0 C-364.5710144042969,-201.3470001220703 -201.3470001220703,-364.5710144042969 0,-364.5710144042969 C201.3470001220703,-364.5710144042969 364.5710144042969,-201.3470001220703 364.5710144042969,0z"></path></g><g opacity="1" transform="matrix(1,0,0,1,268.50799560546875,158.531005859375)"><path fill="rgb(255,145,164)" fill-opacity="1" d=" M79.38600158691406,50.81700134277344 C79.38600158691406,50.81700134277344 37.28799819946289,-50.81700134277344 37.28799819946289,-50.81700134277344 C-6.565000057220459,-32.71099853515625 -46.10100173950195,-6.289000034332275 -79.38600158691406,26.465999603271484 C-79.38600158691406,26.465999603271484 79.38600158691406,50.81700134277344 79.38600158691406,50.81700134277344z"></path></g><g opacity="1" transform="matrix(1,0,0,1,159.62899780273438,267.0299987792969)"><path fill="rgb(255,145,164)" fill-opacity="1" d=" M26.834999084472656,-79.39399719238281 C-6.160999774932861,-46.25299835205078 -32.83300018310547,-6.811999797821045 -51.1879997253418,36.987998962402344 C-51.1879997253418,36.987998962402344 51.1879997253418,79.39399719238281 51.1879997253418,79.39399719238281 C51.1879997253418,79.39399719238281 26.834999084472656,-79.39399719238281 26.834999084472656,-79.39399719238281z"></path></g><g opacity="1" transform="matrix(1,0,0,1,0.5,0.5)"><path fill="rgb(248,106,102)" fill-opacity="1" d="M0 0"></path></g><g opacity="1" transform="matrix(1,0,0,1,315.6419982910156,314.17401123046875)"><path fill="rgb(255,83,113)" fill-opacity="1" d=" M32.250999450683594,-104.82599639892578 C32.250999450683594,-104.82599639892578 -126.52100372314453,-129.177001953125 -126.52100372314453,-129.177001953125 C-127.41100311279297,-128.30099487304688 -128.29600524902344,-127.4219970703125 -129.17799377441406,-126.53700256347656 C-129.17799377441406,-126.53700256347656 -104.82499694824219,32.25 -104.82499694824219,32.25 C-104.82499694824219,32.25 129.17799377441406,129.177001953125 129.17799377441406,129.177001953125 C129.17799377441406,129.177001953125 32.250999450683594,-104.82599639892578 32.250999450683594,-104.82599639892578z"></path></g><g opacity="1" transform="matrix(1,0,0,1,0,0)"><path fill="rgb(248,106,102)" fill-opacity="1" d=" M210.8179931640625,346.42401123046875 C210.8179931640625,346.42401123046875 210.8179931640625,346.42401123046875 210.8179931640625,346.42401123046875z"></path></g><g opacity="1" transform="matrix(1,0,0,1,262.53399658203125,443.35101318359375)"><path fill="rgb(255,54,88)" fill-opacity="1" d=" M-51.715999603271484,-96.927001953125 C-51.715999603271484,-96.927001953125 -51.715999603271484,-96.927001953125 -51.715999603271484,-96.927001953125 C-51.715999603271484,-96.927001953125 -182.25900268554688,-1.1030000448226929 -182.25900268554688,-1.1030000448226929 C-182.26400756835938,-0.37299999594688416 -182.28599548339844,0.35199999809265137 -182.28700256347656,1.0829999446868896 C-182.28700256347656,1.0829999446868896 -51.715999603271484,96.927001953125 -51.715999603271484,96.927001953125 C-51.715999603271484,96.927001953125 182.28700256347656,0 182.28700256347656,0 C182.28700256347656,0 -51.715999603271484,-96.927001953125 -51.715999603271484,-96.927001953125z"></path></g><g opacity="1" transform="matrix(1,0,0,1,145.54600524902344,373.13299560546875)"><path fill="rgb(255,83,113)" fill-opacity="1" d=" M65.27100372314453,-26.709999084472656 C65.27100372314453,-26.709999084472656 -37.10599899291992,-69.11499786376953 -37.10599899291992,-69.11499786376953 C-54.95000076293945,-26.538999557495117 -64.93199920654297,20.141000747680664 -65.27100372314453,69.11499786376953 C-65.27100372314453,69.11499786376953 65.27100372314453,-26.709999084472656 65.27100372314453,-26.709999084472656z"></path></g><g opacity="1" transform="matrix(1,0,0,1,145.52999877929688,513.77197265625)"><path fill="rgb(255,83,113)" fill-opacity="1" d=" M65.28800201416016,26.506000518798828 C65.28800201416016,26.506000518798828 -65.28299713134766,-69.33799743652344 -65.28299713134766,-69.33799743652344 C-65.28299713134766,-69.20899963378906 -65.28800201416016,-69.08100128173828 -65.28800201416016,-68.95099639892578 C-65.28800201416016,-19.99799919128418 -55.6150016784668,26.690000534057617 -38.117000579833984,69.33799743652344 C-38.117000579833984,69.33799743652344 65.28800201416016,26.506000518798828 65.28800201416016,26.506000518798828z"></path></g><g opacity="1" transform="matrix(1,0,0,1,0.5,0.5)"><path fill="rgb(248,106,102)" fill-opacity="1" d="M0 0"></path></g><g opacity="1" transform="matrix(1,0,0,1,515.4219970703125,144.8090057373047)"><path fill="rgb(255,83,113)" fill-opacity="1" d=" M68.42400360107422,-37.095001220703125 C26.211000442504883,-54.52299880981445 -19.983999252319336,-64.25499725341797 -68.42400360107422,-64.53900146484375 C-68.42400360107422,-64.53900146484375 26.326000213623047,64.53900146484375 26.326000213623047,64.53900146484375 C26.326000213623047,64.53900146484375 68.42400360107422,-37.095001220703125 68.42400360107422,-37.095001220703125z"></path></g><g opacity="1" transform="matrix(1,0,0,1,444.8210144042969,261.7969970703125)"><path fill="rgb(255,54,88)" fill-opacity="1" d=" M2.177999973297119,-181.52699279785156 C1.4500000476837158,-181.531005859375 0.7279999852180481,-181.5540008544922 0,-181.5540008544922 C-0.7289999723434448,-181.5540008544922 -1.4509999752044678,-181.531005859375 -2.177999973297119,-181.52699279785156 C-2.177999973297119,-181.52699279785156 -96.927001953125,-52.44900131225586 -96.927001953125,-52.44900131225586 C-96.927001953125,-52.44900131225586 0,181.5540008544922 0,181.5540008544922 C0,181.5540008544922 96.927001953125,-52.44900131225586 96.927001953125,-52.44900131225586 C96.927001953125,-52.44900131225586 2.177999973297119,-181.52699279785156 2.177999973297119,-181.52699279785156z"></path></g><g opacity="1" transform="matrix(1,0,0,1,374.218994140625,144.8090057373047)"><path fill="rgb(255,83,113)" fill-opacity="1" d=" M68.42400360107422,-64.53900146484375 C19.985000610351562,-64.25499725341797 -26.209999084472656,-54.52299880981445 -68.4229965209961,-37.095001220703125 C-68.4229965209961,-37.095001220703125 -26.326000213623047,64.53900146484375 -26.326000213623047,64.53900146484375 C-26.326000213623047,64.53900146484375 68.42400360107422,-64.53900146484375 68.42400360107422,-64.53900146484375z"></path></g><g opacity="1" transform="matrix(1,0,0,1,621.1339721679688,158.531005859375)"><path fill="rgb(255,54,88)" fill-opacity="1" d=" M-79.38500213623047,50.81700134277344 C-79.38500213623047,50.81700134277344 79.38500213623047,26.465999603271484 79.38500213623047,26.465999603271484 C46.10100173950195,-6.289000034332275 6.565000057220459,-32.71099853515625 -37.28799819946289,-50.81700134277344 C-37.28799819946289,-50.81700134277344 -79.38500213623047,50.81700134277344 -79.38500213623047,50.81700134277344z"></path></g><g opacity="1" transform="matrix(1,0,0,1,730.0120239257812,267.0299987792969)"><path fill="rgb(255,54,88)" fill-opacity="1" d=" M51.18899917602539,36.98699951171875 C32.83399963378906,-6.813000202178955 6.160999774932861,-46.25299835205078 -26.833999633789062,-79.39399719238281 C-26.833999633789062,-79.39399719238281 -51.18899917602539,79.39299774169922 -51.18899917602539,79.39299774169922 C-51.18899917602539,79.39299774169922 51.18899917602539,36.98699951171875 51.18899917602539,36.98699951171875z"></path></g><g opacity="1" transform="matrix(1,0,0,1,573.9990234375,314.17401123046875)"><path fill="rgb(255,83,113)" fill-opacity="1" d=" M126.52100372314453,-129.177001953125 C126.52100372314453,-129.177001953125 -32.25,-104.82599639892578 -32.25,-104.82599639892578 C-32.25,-104.82599639892578 -129.17799377441406,129.177001953125 -129.17799377441406,129.177001953125 C-129.17799377441406,129.177001953125 104.82499694824219,32.25 104.82499694824219,32.25 C104.82499694824219,32.25 129.1790008544922,-126.53700256347656 129.1790008544922,-126.53700256347656 C128.2969970703125,-127.4219970703125 127.41200256347656,-128.30099487304688 126.52100372314453,-129.177001953125z"></path></g><g opacity="1" transform="matrix(1,0,0,1,0.5,0.5)"><path fill="rgb(248,106,102)" fill-opacity="1" d="M0 0"></path></g><g opacity="1" transform="matrix(1,0,0,1,374.7869873046875,743.3759765625)"><path fill="rgb(171,18,45)" fill-opacity="1" d=" M-70.03299713134766,38.125999450683594 C-26.906999588012695,56.0880012512207 20.400999069213867,66.02200317382812 70.03399658203125,66.02200317382812 C70.03399658203125,66.02200317382812 -26.89299964904785,-66.02200317382812 -26.89299964904785,-66.02200317382812 C-26.89299964904785,-66.02200317382812 -70.03299713134766,38.125999450683594 -70.03299713134766,38.125999450683594z"></path></g><g opacity="1" transform="matrix(1,0,0,1,514.85400390625,743.3759765625)"><path fill="rgb(171,18,45)" fill-opacity="1" d=" M-70.03299713134766,66.02300262451172 C-20.399999618530273,66.02300262451172 26.908000946044922,56.0880012512207 70.03399658203125,38.12699890136719 C70.03399658203125,38.12699890136719 26.893999099731445,-66.02200317382812 26.893999099731445,-66.02200317382812 C26.893999099731445,-66.02200317382812 -70.03299713134766,66.02300262451172 -70.03299713134766,66.02300262451172z"></path></g><g opacity="1" transform="matrix(1,0,0,1,444.8210144042969,626.375)"><path fill="rgb(211,22,57)" fill-opacity="1" d=" M0,-183.0240020751953 C0,-183.0240020751953 -96.927001953125,50.979000091552734 -96.927001953125,50.979000091552734 C-96.927001953125,50.979000091552734 0,183.0240020751953 0,183.0240020751953 C0,183.0240020751953 96.927001953125,50.979000091552734 96.927001953125,50.979000091552734 C96.927001953125,50.979000091552734 0,-183.0240020751953 0,-183.0240020751953z"></path></g><g opacity="1" transform="matrix(1,0,0,1,159.11599731445312,620.9500122070312)"><path fill="rgb(211,22,57)" fill-opacity="1" d=" M-51.70199966430664,-37.840999603271484 C-33.39099884033203,6.788000106811523 -6.485000133514404,46.97600173950195 26.95599937438965,80.6719970703125 C26.95599937438965,80.6719970703125 51.70199966430664,-80.6719970703125 51.70199966430664,-80.6719970703125 C51.70199966430664,-80.6719970703125 -51.70199966430664,-37.840999603271484 -51.70199966430664,-37.840999603271484z"></path></g><g opacity="1" transform="matrix(1,0,0,1,0.5,0.5)"><path fill="rgb(248,106,102)" fill-opacity="1" d="M0 0"></path></g><g opacity="1" transform="matrix(1,0,0,1,267.218994140625,729.427978515625)"><path fill="rgb(211,22,57)" fill-opacity="1" d=" M80.67400360107422,-52.07400131225586 C80.67400360107422,-52.07400131225586 -80.67400360107422,-27.327999114990234 -80.67400360107422,-27.327999114990234 C-47.12699890136719,6.3520002365112305 -7.0370001792907715,33.5099983215332 37.534000396728516,52.07400131225586 C37.534000396728516,52.07400131225586 80.67400360107422,-52.07400131225586 80.67400360107422,-52.07400131225586z"></path></g><g opacity="1" transform="matrix(1,0,0,1,315.4460144042969,572.7249755859375)"><path fill="rgb(255,83,113)" fill-opacity="1" d=" M-104.62799835205078,-32.448001861572266 C-104.62799835205078,-32.448001861572266 -129.37399291992188,128.89700317382812 -129.37399291992188,128.89700317382812 C-129.21600341796875,129.05499267578125 -129.05999755859375,129.2169952392578 -128.9010009765625,129.375 C-128.9010009765625,129.375 32.448001861572266,104.62799835205078 32.448001861572266,104.62799835205078 C32.448001861572266,104.62799835205078 129.375,-129.375 129.375,-129.375 C129.375,-129.375 -104.62799835205078,-32.448001861572266 -104.62799835205078,-32.448001861572266z"></path></g><g opacity="1" transform="matrix(1,0,0,1,744.1110229492188,513.77197265625)"><path fill="rgb(255,83,113)" fill-opacity="1" d=" M-65.28800201416016,26.506000518798828 C-65.28800201416016,26.506000518798828 -65.28800201416016,26.506000518798828 -65.28800201416016,26.506000518798828 C-65.28800201416016,26.506000518798828 38.117000579833984,69.33799743652344 38.117000579833984,69.33799743652344 C55.6150016784668,26.690000534057617 65.28800201416016,-19.99799919128418 65.28800201416016,-68.95099639892578 C65.28800201416016,-69.08100128173828 65.28299713134766,-69.20899963378906 65.28299713134766,-69.33799743652344 C65.28299713134766,-69.33799743652344 -65.28800201416016,26.506000518798828 -65.28800201416016,26.506000518798828z"></path></g><g opacity="1" transform="matrix(1,0,0,1,627.1079711914062,443.35101318359375)"><path fill="rgb(255,54,88)" fill-opacity="1" d=" M182.25999450683594,-1.1030000448226929 C182.25999450683594,-1.1030000448226929 51.715999603271484,-96.927001953125 51.715999603271484,-96.927001953125 C51.715999603271484,-96.927001953125 -182.28599548339844,0 -182.28599548339844,0 C-182.28599548339844,0 51.715999603271484,96.927001953125 51.715999603271484,96.927001953125 C51.715999603271484,96.927001953125 182.28599548339844,1.0829999446868896 182.28599548339844,1.0829999446868896 C182.28500366210938,0.35199999809265137 182.26499938964844,-0.37400001287460327 182.25999450683594,-1.1030000448226929z"></path></g><g opacity="1" transform="matrix(1,0,0,1,0.5,0.5)"><path fill="rgb(248,106,102)" fill-opacity="1" d="M0 0"></path></g><g opacity="1" transform="matrix(1,0,0,1,744.094970703125,373.13299560546875)"><path fill="rgb(255,83,113)" fill-opacity="1" d=" M-65.27200317382812,-26.708999633789062 C-65.27200317382812,-26.708999633789062 65.27200317382812,69.11499786376953 65.27200317382812,69.11499786376953 C64.93199920654297,20.141000747680664 54.94900131225586,-26.538999557495117 37.10599899291992,-69.11499786376953 C37.10599899291992,-69.11499786376953 -65.27200317382812,-26.708999633789062 -65.27200317382812,-26.708999633789062z"></path></g><g opacity="1" transform="matrix(1,0,0,1,0,0)"><path fill="rgb(248,106,102)" fill-opacity="1" d=" M678.822998046875,346.4230041503906 C678.822998046875,346.4230041503906 678.822998046875,346.4230041503906 678.822998046875,346.4230041503906z"></path></g><g opacity="1" transform="matrix(1,0,0,1,730.5260009765625,620.9500122070312)"><path fill="rgb(211,22,57)" fill-opacity="1" d=" M-26.95599937438965,80.6719970703125 C6.484000205993652,46.97700119018555 33.391998291015625,6.788000106811523 51.702999114990234,-37.840999603271484 C51.702999114990234,-37.840999603271484 -51.702999114990234,-80.6719970703125 -51.702999114990234,-80.6719970703125 C-51.702999114990234,-80.6719970703125 -26.95599937438965,80.6719970703125 -26.95599937438965,80.6719970703125z"></path></g><g opacity="1" transform="matrix(1,0,0,1,574.1950073242188,572.7249755859375)"><path fill="rgb(248,44,80)" fill-opacity="1" d=" M104.62799835205078,-32.448001861572266 C104.62799835205078,-32.448001861572266 -129.37399291992188,-129.375 -129.37399291992188,-129.375 C-129.37399291992188,-129.375 -32.446998596191406,104.62799835205078 -32.446998596191406,104.62799835205078 C-32.446998596191406,104.62799835205078 128.9010009765625,129.375 128.9010009765625,129.375 C129.05999755859375,129.2169952392578 129.2169952392578,129.05499267578125 129.37399291992188,128.89700317382812 C129.37399291992188,128.89700317382812 104.62799835205078,-32.448001861572266 104.62799835205078,-32.448001861572266z"></path></g><g opacity="1" transform="matrix(1,0,0,1,622.4229736328125,729.427978515625)"><path fill="rgb(211,22,57)" fill-opacity="1" d=" M-80.67400360107422,-52.07400131225586 C-80.67400360107422,-52.07400131225586 -37.53499984741211,52.07400131225586 -37.53499984741211,52.07400131225586 C7.035999774932861,33.5099983215332 47.12699890136719,6.3520002365112305 80.67400360107422,-27.327999114990234 C80.67400360107422,-27.327999114990234 -80.67400360107422,-52.07400131225586 -80.67400360107422,-52.07400131225586z"></path></g><g opacity="1" transform="matrix(1,0,0,1,0.5,0.5)"><path fill="rgb(248,106,102)" fill-opacity="1" d="M0 0"></path></g></g><g class="1 1" transform="matrix(0.09999962151050568,0.00027672250871546566,-0.00027672250871546566,0.09999962151050568,64.99810028076172,65.49707794189453)" opacity="1" style="display: block;"><g opacity="1" transform="matrix(1,0,0,1,0,0)"><path fill="rgb(254,213,221)" fill-opacity="1" d=" M-305.93316650390625,-219.6779327392578 C-305.93316650390625,-219.6779327392578 -408.9117736816406,-208.09608459472656 -408.9117736816406,-208.09608459472656 C-408.9117736816406,-208.09608459472656 -408.92144775390625,-207.87063598632812 -408.83563232421875,-207.88446044921875 C-414.6169738769531,-198.1840362548828 -420.5,-184.5 -420.5,-184.5 C-420.5,-184.5 -293.06402587890625,-131.0438690185547 -293.06402587890625,-131.0438690185547 C-293.06402587890625,-131.0438690185547 -292.7499084472656,-131.03594970703125 -292.7499084472656,-131.03594970703125 C-292.7499084472656,-131.03594970703125 -305.93316650390625,-219.6779327392578 -305.93316650390625,-219.6779327392578z"></path></g></g><g class="1 1 1" transform="matrix(0.09999801963567734,0.0006288827280513942,-0.0006288827280513942,0.09999801963567734,64.98896026611328,66.3345947265625)" opacity="1" style="display: none;"><g opacity="1" transform="matrix(1,0,0,1,0,0)"><path fill="rgb(254,213,221)" fill-opacity="1" d=" M-125.18199920654297,-320.1340026855469 C-125.18199920654297,-320.1340026855469 -152.7310028076172,-316.0450134277344 -152.7310028076172,-316.0450134277344 C-152.7310028076172,-316.0450134277344 -152.44400024414062,-316.7430114746094 -152.5659942626953,-315.9150085449219 C-153.44200134277344,-316.239990234375 -153.3820037841797,-315.98699951171875 -153.3820037841797,-315.98699951171875 C-153.3820037841797,-315.98699951171875 -121.87000274658203,-311.5190124511719 -121.87000274658203,-311.5190124511719 C-121.87000274658203,-311.5190124511719 -121.75,-311.5 -121.75,-311.5 C-121.75,-311.5 -125.18199920654297,-320.1340026855469 -125.18199920654297,-320.1340026855469z"></path></g></g><g class="2 2" transform="matrix(0.10000000149011612,-0.0000025298240871052258,0.0000025298240871052258,0.10000000149011612,64.99996948242188,64.99708557128906)" opacity="1" style="display: block;"><g opacity="1" transform="matrix(1,0,0,1,0,0)"><path fill="rgb(255,174,188)" fill-opacity="1" d=" M-173.11070251464844,-305.66461181640625 C-173.11070251464844,-305.66461181640625 -302.1307067871094,-190.525634765625 -302.1307067871094,-190.525634765625 C-302.1307067871094,-190.525634765625 -292.5,-126.5 -292.5,-126.5 C-292.5,-126.5 -188.39291381835938,-83.3663101196289 -188.39291381835938,-83.3663101196289 C-188.39291381835938,-83.3663101196289 -74.34847259521484,-185.3472442626953 -74.34847259521484,-185.3472442626953 C-74.34847259521484,-185.3472442626953 -120,-296.5 -120,-296.5 C-120,-296.5 -173.11070251464844,-305.66461181640625 -173.11070251464844,-305.66461181640625z"></path></g></g><g class="3 3" style="display: none;" transform="matrix(0.0999988541007042,-0.00048063392750918865,0.00048063392750918865,0.0999988541007042,65.00140380859375,63.902889251708984)" opacity="1"><g opacity="1" transform="matrix(1,0,0,1,0,0)"><path fill="rgb(255,133,154)" fill-opacity="1" d=" M435.7139892578125,-17.21500015258789 C435.7139892578125,-17.21500015258789 435.239990234375,-16.902000427246094 435.239990234375,-16.902000427246094 C435.239990234375,-16.902000427246094 455.239990234375,-2.7360000610351562 455.239990234375,-2.7360000610351562 C455.239990234375,-2.7360000610351562 455.22698974609375,-3 455.22698974609375,-3 C455.22698974609375,-3 455.0299987792969,-12.069000244140625 454.6719970703125,-16.48200035095215 C454.83599853515625,-17.159000396728516 454.9849853515625,-17.089000701904297 454.9849853515625,-17.089000701904297 C454.9849853515625,-17.089000701904297 435.7139892578125,-17.21500015258789 435.7139892578125,-17.21500015258789z"></path></g></g><g class="3 3 3" style="display: none;" transform="matrix(0.09999851137399673,-0.0005462545668706298,0.0005462545668706298,0.09999851137399673,65.00772857666016,64.03502655029297)" opacity="1"><g opacity="1" transform="matrix(1,0,0,1,0,0)"><path fill="rgb(255,195,206)" fill-opacity="1" d=" M291.7380065917969,107.1449966430664 C291.7380065917969,107.1449966430664 292,107 292,107 C292,107 398,151 398,151 C398,151 420.7359924316406,159.4929962158203 420.7359924316406,159.4929962158203 C420.7359924316406,159.4929962158203 426.9230041503906,145.08399963378906 432.62799072265625,127.21299743652344 C437.1659851074219,112.99700164794922 441.2900085449219,97.21399688720703 441.2900085449219,97.21399688720703 C441.2900085449219,97.21399688720703 291.7380065917969,107.1449966430664 291.7380065917969,107.1449966430664z"></path></g></g><g class="4 4" style="display: none;" transform="matrix(0.09999748319387436,-0.0007108997670002282,0.0007108997670002282,0.09999748319387436,65.012451171875,63.797725677490234)" opacity="1"><g opacity="1" transform="matrix(1,0,0,1,0,0)"><path fill="rgb(255,145,165)" fill-opacity="1" d=" M319.5369873046875,286.60699462890625 C319.5369873046875,286.60699462890625 322.4729919433594,304.3789978027344 322.4729919433594,304.3789978027344 C322.4729919433594,304.3789978027344 324.875,302 324.875,302 C324.875,302 330.28399658203125,295.7030029296875 330.2669982910156,295.3070068359375 C330.65899658203125,295.7049865722656 330.4490051269531,295.5639953613281 330.4490051269531,295.5639953613281 C330.4490051269531,295.5639953613281 320.0740051269531,287.0169982910156 320.0740051269531,287.0169982910156 C320.0740051269531,287.0169982910156 319.5369873046875,286.60699462890625 319.5369873046875,286.60699462890625z"></path></g></g><g class="4 4 4" style="display: none;" transform="matrix(0.09999959170818329,-0.0002887461450882256,0.0002887461450882256,0.09999959170818329,65.00859069824219,64.54109954833984)" opacity="1"><g opacity="1" transform="matrix(1,0,0,1,0,0)"><path fill="rgb(255,133,154)" fill-opacity="1" d=" M145.85800170898438,317.5580139160156 C145.85800170898438,317.5580139160156 176.5,390.5 176.5,390.5 C176.5,390.5 188.46600341796875,385.6860046386719 216.4600067138672,371.67999267578125 C216.96800231933594,371.4259948730469 216.63999938964844,371.5880126953125 216.63999938964844,371.5880126953125 C216.63999938964844,371.5880126953125 146.13999938964844,318.0880126953125 146.13999938964844,318.0880126953125 C146.13999938964844,318.0880126953125 145.85800170898438,317.5580139160156 145.85800170898438,317.5580139160156z"></path></g></g><g transform="matrix(0.3793371021747589,-0.6392030119895935,0.6392030119895935,0.3793371021747589,48.978660583496094,89.10072326660156)" opacity="0.7951478485057544" style="display: block;"><g opacity="1" transform="matrix(1,0,0,1,0,0)"><path fill="rgb(255,255,255)" fill-opacity="1" d=" M59.625,-53.375 C59.625,-53.375 59.99300003051758,-47.981998443603516 61.61399841308594,-46.097999572753906 C63.07600021362305,-44.39899826049805 68.875,-44.25 68.875,-44.25 C68.875,-44.25 63.46099853515625,-43.130001068115234 61.941001892089844,-41.69499969482422 C60.46099853515625,-40.297000885009766 60.25,-34.75 60.25,-34.75 C60.25,-34.75 60.01900100708008,-40.20800018310547 58.090999603271484,-41.624000549316406 C55.93600082397461,-43.20800018310547 50.625,-43.75 50.625,-43.75 C50.625,-43.75 55.30400085449219,-43.499000549316406 57.63399887084961,-45.48899841308594 C59.78300094604492,-47.32500076293945 59.625,-53.375 59.625,-53.375z"></path></g></g><g style="display: block;" transform="matrix(0.07149652391672134,0.04363526403903961,-0.04363526403903961,0.07149652391672134,41.51131820678711,57.932376861572266)" opacity="0.10405443960608728"><g opacity="1" transform="matrix(1,0,0,1,0,0)"><path fill="rgb(255,255,255)" fill-opacity="1" d=" M59.625,-53.375 C59.625,-53.375 59.99300003051758,-47.981998443603516 61.61399841308594,-46.097999572753906 C63.07600021362305,-44.39899826049805 68.875,-44.25 68.875,-44.25 C68.875,-44.25 63.46099853515625,-43.130001068115234 61.941001892089844,-41.69499969482422 C60.46099853515625,-40.297000885009766 60.25,-34.75 60.25,-34.75 C60.25,-34.75 60.01900100708008,-40.20800018310547 58.090999603271484,-41.624000549316406 C55.93600082397461,-43.20800018310547 50.625,-43.75 50.625,-43.75 C50.625,-43.75 55.30400085449219,-43.499000549316406 57.63399887084961,-45.48899841308594 C59.78300094604492,-47.32500076293945 59.625,-53.375 59.625,-53.375z"></path></g></g><g style="display: none;" transform="matrix(0.3583056330680847,0.23714828491210938,-0.23714828491210938,0.3583056330680847,50.95766830444336,104.81298828125)" opacity="0.000027775504891565108"><g opacity="1" transform="matrix(1,0,0,1,0,0)"><path fill="rgb(255,255,255)" fill-opacity="1" d=" M59.625,-53.375 C59.625,-53.375 59.99300003051758,-47.981998443603516 61.61399841308594,-46.097999572753906 C63.07600021362305,-44.39899826049805 68.875,-44.25 68.875,-44.25 C68.875,-44.25 63.46099853515625,-43.130001068115234 61.941001892089844,-41.69499969482422 C60.46099853515625,-40.297000885009766 60.25,-34.75 60.25,-34.75 C60.25,-34.75 60.01900100708008,-40.20800018310547 58.090999603271484,-41.624000549316406 C55.93600082397461,-43.20800018310547 50.625,-43.75 50.625,-43.75 C50.625,-43.75 55.30400085449219,-43.499000549316406 57.63399887084961,-45.48899841308594 C59.78300094604492,-47.32500076293945 59.625,-53.375 59.625,-53.375z"></path></g></g></g></svg>